<svg width="40" height="41" viewBox="0 0 40 41" fill="none" xmlns="http://www.w3.org/2000/svg">
  <path fill-rule="evenodd" clip-rule="evenodd" d="M20 0.250092C31.046 0.250092 40 9.42995 40 20.756C40 29.8139 34.276 37.498 26.334 40.212C25.32 40.414 24.96 39.7736 24.96 39.2276C24.96 38.5516 24.984 36.3437 24.984 33.5997C24.984 31.6877 24.344 30.4398 23.626 29.8038C28.08 29.2958 32.76 27.5616 32.76 19.6856C32.76 17.4456 31.984 15.6177 30.7 14.1817C30.908 13.6637 31.594 11.578 30.504 8.754C30.504 8.754 28.828 8.20454 25.01 10.8565C23.412 10.4025 21.7 10.1741 20 10.1661C18.3 10.1741 16.59 10.4025 14.994 10.8565C11.172 8.20454 9.492 8.754 9.492 8.754C8.406 11.578 9.092 13.6637 9.298 14.1817C8.02 15.6177 7.23801 17.4456 7.23801 19.6856C7.23801 27.5416 11.908 29.3024 16.35 29.8204C15.778 30.3324 15.26 31.2356 15.08 32.5616C13.94 33.0856 11.044 33.9925 9.25999 30.8585C9.25999 30.8585 8.202 28.8882 6.194 28.7442C6.194 28.7442 4.244 28.7183 6.058 29.9903C6.058 29.9903 7.368 30.6203 8.278 32.9903C8.278 32.9903 9.45201 36.6502 15.016 35.4102C15.026 37.1242 15.044 38.7396 15.044 39.2276C15.044 39.7696 14.676 40.404 13.678 40.214C5.72999 37.504 0 29.816 0 20.756C0 9.42995 8.956 0.250092 20 0.250092Z" fill="#A1A1AA"/>
  </svg>
  