<svg width="40" height="41" viewBox="0 0 40 41" fill="none" xmlns="http://www.w3.org/2000/svg">
  <path fill-rule="evenodd" clip-rule="evenodd" d="M20 31.659C26.0249 31.659 30.9091 26.7748 30.9091 20.7499C30.9091 14.725 26.0249 9.84079 20 9.84079C13.9751 9.84079 9.09094 14.725 9.09094 20.7499C9.09094 26.7748 13.9751 31.659 20 31.659ZM20 28.0226C24.0166 28.0226 27.2728 24.7664 27.2728 20.7499C27.2728 16.7333 24.0166 13.4772 20 13.4772C15.9834 13.4772 12.7273 16.7333 12.7273 20.7499C12.7273 24.7664 15.9834 28.0226 20 28.0226Z" fill="#A1A1AA"/>
  <path d="M30.9091 8.0226C29.9049 8.0226 29.0909 8.83663 29.0909 9.84078C29.0909 10.8449 29.9049 11.659 30.9091 11.659C31.9133 11.659 32.7273 10.8449 32.7273 9.84078C32.7273 8.83663 31.9133 8.0226 30.9091 8.0226Z" fill="#A1A1AA"/>
  <path fill-rule="evenodd" clip-rule="evenodd" d="M1.18902 6.70635C0 9.03993 0 12.0948 0 18.2044V23.2953C0 29.405 0 32.4599 1.18902 34.7933C2.23491 36.8461 3.90378 38.515 5.95647 39.5608C8.29006 40.7499 11.3449 40.7499 17.4545 40.7499H22.5455C28.6551 40.7499 31.71 40.7499 34.0435 39.5608C36.0962 38.515 37.7651 36.8461 38.8109 34.7933C40 32.4599 40 29.405 40 23.2953V18.2044C40 12.0948 40 9.03993 38.8109 6.70635C37.7651 4.65366 36.0962 2.98479 34.0435 1.9389C31.71 0.749878 28.6551 0.749878 22.5455 0.749878H17.4545C11.3449 0.749878 8.29006 0.749878 5.95647 1.9389C3.90378 2.98479 2.23491 4.65366 1.18902 6.70635ZM22.5455 4.38624H17.4545C14.3397 4.38624 12.2223 4.38908 10.5856 4.52279C8.99135 4.65304 8.17607 4.88913 7.60735 5.17891C6.23889 5.87619 5.12631 6.98877 4.42904 8.35722C4.13925 8.92595 3.90316 9.74122 3.77291 11.3355C3.6392 12.9722 3.63636 15.0896 3.63636 18.2044V23.2953C3.63636 26.4102 3.6392 28.5275 3.77291 30.1642C3.90316 31.7586 4.13925 32.5739 4.42904 33.1426C5.12631 34.511 6.23889 35.6235 7.60735 36.3208C8.17607 36.6106 8.99135 36.8468 10.5856 36.977C12.2223 37.1106 14.3397 37.1135 17.4545 37.1135H22.5455C25.6604 37.1135 27.7776 37.1106 29.4144 36.977C31.0087 36.8468 31.824 36.6106 32.3927 36.3208C33.7611 35.6235 34.8736 34.511 35.5709 33.1426C35.8607 32.5739 36.0969 31.7586 36.2271 30.1642C36.3607 28.5275 36.3636 26.4102 36.3636 23.2953V18.2044C36.3636 15.0896 36.3607 12.9722 36.2271 11.3355C36.0969 9.74122 35.8607 8.92595 35.5709 8.35722C34.8736 6.98877 33.7611 5.87619 32.3927 5.17891C31.824 4.88913 31.0087 4.65304 29.4144 4.52279C27.7776 4.38908 25.6604 4.38624 22.5455 4.38624Z" fill="#A1A1AA"/>
  </svg>
  