<svg width="40" height="41" viewBox="0 0 40 41" fill="none" xmlns="http://www.w3.org/2000/svg">
  <path d="M34.0833 34.8333H28.1567V25.55C28.1567 23.3366 28.1167 20.4866 25.0733 20.4866C21.9867 20.4866 21.5133 22.9 21.5133 25.3866V34.8333H15.5867V15.7433H21.2767V18.3533H21.3567C22.5167 16.3733 24.6767 15.1866 26.97 15.27C32.9767 15.27 34.0867 19.22 34.0867 24.3633L34.0833 34.83V34.8333ZM8.9 13.1333C7.98958 13.1289 7.11765 12.7656 6.47356 12.1221C5.82948 11.4786 5.46526 10.6071 5.46 9.69664C5.46 7.80997 7.01333 6.25664 8.9 6.25664C10.7867 6.25664 12.3367 7.80997 12.34 9.69664C12.34 11.5833 10.7867 13.1333 8.9 13.1333ZM11.8633 34.8333H5.93V15.7433H11.8633V34.8333ZM37.0333 0.749973H2.95C2.17717 0.745484 1.43379 1.04617 0.88141 1.58669C0.32903 2.12722 0.0122822 2.86389 0 3.63664V37.8633C0.0122822 38.6361 0.32903 39.3727 0.88141 39.9132C1.43379 40.4538 2.17717 40.7545 2.95 40.75H37.0367C37.8113 40.7562 38.5571 40.4566 39.112 39.916C39.6668 39.3755 39.986 38.6378 40 37.8633V3.63331C39.986 2.8594 39.6666 2.1224 39.1115 1.58294C38.5565 1.04347 37.8107 0.745263 37.0367 0.753306L37.0333 0.749973Z" fill="#A1A1AA"/>
  </svg>
  