<svg width="578" height="420" viewBox="0 0 578 420" fill="none" xmlns="http://www.w3.org/2000/svg">
  <g clip-path="url(#clip0_5_151)">
  <path d="M336.684 74.0411C347.517 74.0411 356.299 65.2674 356.299 54.4445C356.299 43.6216 347.517 34.8479 336.684 34.8479C325.851 34.8479 317.07 43.6216 317.07 54.4445C317.07 65.2674 325.851 74.0411 336.684 74.0411Z" fill="#F2F2F2"/>
  <path d="M488.839 364.877C517.994 342.691 531.919 305.41 523.202 269.846C522.985 268.962 522.756 268.08 522.516 267.201C516.736 246.09 502.438 226.026 481.598 219.281C464.1 213.617 445.001 217.973 426.746 215.72C390.911 211.299 363.129 182.331 343.581 152.001C324.033 121.67 309.009 87.7202 283.034 62.663C240.217 21.3606 170.374 12.4681 117.288 39.353C64.2019 66.2378 30.3867 125.884 31.8288 185.329C33.271 244.774 68.593 301.608 119.889 331.762C138.733 342.839 160.528 350.686 182.219 347.94C201.04 345.558 218.14 335.454 236.872 332.455C266.324 327.739 295.587 341.042 321.06 356.545C346.533 372.048 371.138 390.423 400.084 397.611C428.191 404.589 463.013 384.531 488.839 364.877Z" fill="#F2F2F2"/>
  <path d="M446.951 40.6013C446.312 40.1756 445.666 39.7719 445.027 39.3609C426.552 27.5561 406.75 17.966 386.031 10.7888L381.226 77.0044H350.77V1.12289C348.852 0.726564 346.92 0.352258 344.988 -3.05176e-05V77.0044H308.794C288.869 77.0044 269.76 69.0964 255.671 55.02C241.582 40.9437 233.667 21.852 233.667 1.94498C231.727 2.36333 229.803 2.81096 227.878 3.28802V77.0044H198.398L193.822 13.864C172.529 22.0227 152.315 32.7517 133.629 45.8122C133.305 46.0324 132.982 46.2599 132.666 46.4801C131.043 47.6177 129.441 48.7773 127.847 49.9516V302.565H214.729L213.193 281.317L204.745 164.658H374.872L366.424 281.317L364.889 302.565H450.808V43.1554C449.53 42.2893 448.244 41.438 446.951 40.6013ZM227.878 145.392H203.35L198.817 82.7878H227.878V145.392ZM344.988 145.392H303.792V144.152C303.792 143.556 303.674 142.965 303.446 142.415C303.217 141.864 302.882 141.364 302.46 140.942C302.037 140.521 301.536 140.187 300.984 139.96C300.433 139.732 299.842 139.615 299.245 139.616H281.335C280.739 139.616 280.148 139.733 279.598 139.961C279.047 140.189 278.546 140.523 278.124 140.944C277.703 141.366 277.368 141.866 277.14 142.416C276.912 142.967 276.795 143.556 276.795 144.152V145.392H233.667V82.7878H344.988V145.392ZM350.77 145.392V82.7878H380.808L376.275 145.392H350.77Z" fill="#3F3D56"/>
  <path d="M-2.28882e-05 318.741C6.38166 326.296 13.2842 333.396 20.657 339.989L557.343 340.723C564.716 334.13 571.618 327.03 578 319.475L-2.28882e-05 318.741Z" fill="#3F3D56"/>
  <path d="M363.944 250.706V313.607C363.945 314.409 364.264 315.177 364.831 315.744C365.398 316.311 366.168 316.63 366.97 316.63H460.268C461.07 316.63 461.839 316.311 462.407 315.744C462.974 315.177 463.293 314.409 463.294 313.607V250.706C463.292 249.905 462.972 249.137 462.405 248.571C461.838 248.005 461.069 247.687 460.268 247.686H366.97C366.168 247.687 365.4 248.005 364.833 248.571C364.266 249.137 363.946 249.905 363.944 250.706Z" fill="#3F3D56"/>
  <path d="M366.133 251.488V312.831C366.134 313.259 366.304 313.67 366.607 313.973C366.91 314.276 367.321 314.446 367.75 314.447H459.491C459.92 314.446 460.331 314.276 460.634 313.973C460.937 313.67 461.108 313.259 461.108 312.831V251.488C461.108 251.06 460.938 250.648 460.635 250.345C460.332 250.041 459.92 249.87 459.491 249.869H367.75C367.321 249.87 366.91 250.041 366.606 250.345C366.303 250.648 366.133 251.06 366.133 251.488Z" fill="#7E22CE"/>
  <path d="M361.993 325.874C362.164 326.088 362.381 326.261 362.628 326.379C362.876 326.498 363.146 326.558 363.421 326.557H463.321C463.594 326.556 463.863 326.495 464.11 326.378C464.357 326.26 464.574 326.089 464.746 325.877C464.918 325.665 465.041 325.418 465.105 325.152C465.169 324.887 465.174 324.611 465.117 324.344L463.567 316.984C463.502 316.684 463.364 316.405 463.164 316.172C462.964 315.939 462.709 315.759 462.422 315.65C462.214 315.569 461.993 315.527 461.77 315.527H364.965C364.742 315.527 364.521 315.569 364.313 315.65C364.026 315.759 363.771 315.939 363.571 316.172C363.371 316.405 363.232 316.684 363.168 316.984L361.617 324.344C361.562 324.611 361.567 324.886 361.632 325.151C361.697 325.416 361.82 325.663 361.993 325.874Z" fill="#2F2E41"/>
  <path d="M458.342 318.697H460.702C460.9 318.697 461.06 318.536 461.06 318.339V317.211C461.06 317.013 460.9 316.852 460.702 316.852H458.342C458.144 316.852 457.983 317.013 457.983 317.211V318.339C457.983 318.536 458.144 318.697 458.342 318.697Z" fill="#3F3D56"/>
  <path d="M452.188 318.697H454.548C454.746 318.697 454.907 318.536 454.907 318.339V317.211C454.907 317.013 454.746 316.852 454.548 316.852H452.188C451.99 316.852 451.83 317.013 451.83 317.211V318.339C451.83 318.536 451.99 318.697 452.188 318.697Z" fill="#3F3D56"/>
  <path d="M446.035 318.697H448.394C448.592 318.697 448.753 318.536 448.753 318.339V317.211C448.753 317.013 448.592 316.852 448.394 316.852H446.035C445.836 316.852 445.676 317.013 445.676 317.211V318.339C445.676 318.536 445.836 318.697 446.035 318.697Z" fill="#3F3D56"/>
  <path d="M439.881 318.697H442.24C442.438 318.697 442.599 318.536 442.599 318.339V317.211C442.599 317.013 442.438 316.852 442.24 316.852H439.881C439.683 316.852 439.522 317.013 439.522 317.211V318.339C439.522 318.536 439.683 318.697 439.881 318.697Z" fill="#3F3D56"/>
  <path d="M433.727 318.697H436.087C436.285 318.697 436.445 318.536 436.445 318.339V317.211C436.445 317.013 436.285 316.852 436.087 316.852H433.727C433.529 316.852 433.368 317.013 433.368 317.211V318.339C433.368 318.536 433.529 318.697 433.727 318.697Z" fill="#3F3D56"/>
  <path d="M427.573 318.697H429.933C430.131 318.697 430.292 318.536 430.292 318.339V317.211C430.292 317.013 430.131 316.852 429.933 316.852H427.573C427.375 316.852 427.215 317.013 427.215 317.211V318.339C427.215 318.536 427.375 318.697 427.573 318.697Z" fill="#3F3D56"/>
  <path d="M421.42 318.697H423.779C423.977 318.697 424.138 318.536 424.138 318.339V317.211C424.138 317.013 423.977 316.852 423.779 316.852H421.42C421.221 316.852 421.061 317.013 421.061 317.211V318.339C421.061 318.536 421.221 318.697 421.42 318.697Z" fill="#3F3D56"/>
  <path d="M415.266 318.697H417.625C417.823 318.697 417.984 318.536 417.984 318.339V317.211C417.984 317.013 417.823 316.852 417.625 316.852H415.266C415.068 316.852 414.907 317.013 414.907 317.211V318.339C414.907 318.536 415.068 318.697 415.266 318.697Z" fill="#3F3D56"/>
  <path d="M409.112 318.697H411.472C411.67 318.697 411.83 318.536 411.83 318.339V317.211C411.83 317.013 411.67 316.852 411.472 316.852H409.112C408.914 316.852 408.753 317.013 408.753 317.211V318.339C408.753 318.536 408.914 318.697 409.112 318.697Z" fill="#3F3D56"/>
  <path d="M402.958 318.697H405.318C405.516 318.697 405.677 318.536 405.677 318.339V317.211C405.677 317.013 405.516 316.852 405.318 316.852H402.958C402.76 316.852 402.6 317.013 402.6 317.211V318.339C402.6 318.536 402.76 318.697 402.958 318.697Z" fill="#3F3D56"/>
  <path d="M396.805 318.697H399.164C399.362 318.697 399.523 318.536 399.523 318.339V317.211C399.523 317.013 399.362 316.852 399.164 316.852H396.805C396.606 316.852 396.446 317.013 396.446 317.211V318.339C396.446 318.536 396.606 318.697 396.805 318.697Z" fill="#3F3D56"/>
  <path d="M390.651 318.697H393.01C393.208 318.697 393.369 318.536 393.369 318.339V317.211C393.369 317.013 393.208 316.852 393.01 316.852H390.651C390.453 316.852 390.292 317.013 390.292 317.211V318.339C390.292 318.536 390.453 318.697 390.651 318.697Z" fill="#3F3D56"/>
  <path d="M384.497 318.697H386.857C387.055 318.697 387.215 318.536 387.215 318.339V317.211C387.215 317.013 387.055 316.852 386.857 316.852H384.497C384.299 316.852 384.138 317.013 384.138 317.211V318.339C384.138 318.536 384.299 318.697 384.497 318.697Z" fill="#3F3D56"/>
  <path d="M378.343 318.697H380.703C380.901 318.697 381.062 318.536 381.062 318.339V317.211C381.062 317.013 380.901 316.852 380.703 316.852H378.343C378.145 316.852 377.985 317.013 377.985 317.211V318.339C377.985 318.536 378.145 318.697 378.343 318.697Z" fill="#3F3D56"/>
  <path d="M372.19 318.697H374.549C374.747 318.697 374.908 318.536 374.908 318.339V317.211C374.908 317.013 374.747 316.852 374.549 316.852H372.19C371.991 316.852 371.831 317.013 371.831 317.211V318.339C371.831 318.536 371.991 318.697 372.19 318.697Z" fill="#3F3D56"/>
  <path d="M366.036 318.697H368.395C368.593 318.697 368.754 318.536 368.754 318.339V317.211C368.754 317.013 368.593 316.852 368.395 316.852H366.036C365.838 316.852 365.677 317.013 365.677 317.211V318.339C365.677 318.536 365.838 318.697 366.036 318.697Z" fill="#3F3D56"/>
  <path d="M458.415 321.771H460.774C460.972 321.771 461.133 321.611 461.133 321.413V320.285C461.133 320.087 460.972 319.926 460.774 319.926H458.415C458.217 319.926 458.056 320.087 458.056 320.285V321.413C458.056 321.611 458.217 321.771 458.415 321.771Z" fill="#3F3D56"/>
  <path d="M452.261 321.771H454.621C454.819 321.771 454.979 321.611 454.979 321.413V320.285C454.979 320.087 454.819 319.926 454.621 319.926H452.261C452.063 319.926 451.902 320.087 451.902 320.285V321.413C451.902 321.611 452.063 321.771 452.261 321.771Z" fill="#3F3D56"/>
  <path d="M446.107 321.771H448.467C448.665 321.771 448.826 321.611 448.826 321.413V320.285C448.826 320.087 448.665 319.926 448.467 319.926H446.107C445.909 319.926 445.749 320.087 445.749 320.285V321.413C445.749 321.611 445.909 321.771 446.107 321.771Z" fill="#3F3D56"/>
  <path d="M439.953 321.771H442.313C442.511 321.771 442.672 321.611 442.672 321.413V320.285C442.672 320.087 442.511 319.926 442.313 319.926H439.953C439.755 319.926 439.595 320.087 439.595 320.285V321.413C439.595 321.611 439.755 321.771 439.953 321.771Z" fill="#3F3D56"/>
  <path d="M433.8 321.771H436.159C436.357 321.771 436.518 321.611 436.518 321.413V320.285C436.518 320.087 436.357 319.926 436.159 319.926H433.8C433.602 319.926 433.441 320.087 433.441 320.285V321.413C433.441 321.611 433.602 321.771 433.8 321.771Z" fill="#3F3D56"/>
  <path d="M427.646 321.771H430.006C430.204 321.771 430.364 321.611 430.364 321.413V320.285C430.364 320.087 430.204 319.926 430.006 319.926H427.646C427.448 319.926 427.287 320.087 427.287 320.285V321.413C427.287 321.611 427.448 321.771 427.646 321.771Z" fill="#3F3D56"/>
  <path d="M421.492 321.771H423.852C424.05 321.771 424.211 321.611 424.211 321.413V320.285C424.211 320.087 424.05 319.926 423.852 319.926H421.492C421.294 319.926 421.134 320.087 421.134 320.285V321.413C421.134 321.611 421.294 321.771 421.492 321.771Z" fill="#3F3D56"/>
  <path d="M415.338 321.771H417.698C417.896 321.771 418.057 321.611 418.057 321.413V320.285C418.057 320.087 417.896 319.926 417.698 319.926H415.338C415.14 319.926 414.98 320.087 414.98 320.285V321.413C414.98 321.611 415.14 321.771 415.338 321.771Z" fill="#3F3D56"/>
  <path d="M409.185 321.771H411.544C411.742 321.771 411.903 321.611 411.903 321.413V320.285C411.903 320.087 411.742 319.926 411.544 319.926H409.185C408.987 319.926 408.826 320.087 408.826 320.285V321.413C408.826 321.611 408.987 321.771 409.185 321.771Z" fill="#3F3D56"/>
  <path d="M403.031 321.771H405.391C405.589 321.771 405.749 321.611 405.749 321.413V320.285C405.749 320.087 405.589 319.926 405.391 319.926H403.031C402.833 319.926 402.672 320.087 402.672 320.285V321.413C402.672 321.611 402.833 321.771 403.031 321.771Z" fill="#3F3D56"/>
  <path d="M396.877 321.771H399.237C399.435 321.771 399.595 321.611 399.595 321.413V320.285C399.595 320.087 399.435 319.926 399.237 319.926H396.877C396.679 319.926 396.519 320.087 396.519 320.285V321.413C396.519 321.611 396.679 321.771 396.877 321.771Z" fill="#3F3D56"/>
  <path d="M390.724 321.771H393.083C393.281 321.771 393.442 321.611 393.442 321.413V320.285C393.442 320.087 393.281 319.926 393.083 319.926H390.724C390.525 319.926 390.365 320.087 390.365 320.285V321.413C390.365 321.611 390.525 321.771 390.724 321.771Z" fill="#3F3D56"/>
  <path d="M384.57 321.771H386.929C387.127 321.771 387.288 321.611 387.288 321.413V320.285C387.288 320.087 387.127 319.926 386.929 319.926H384.57C384.372 319.926 384.211 320.087 384.211 320.285V321.413C384.211 321.611 384.372 321.771 384.57 321.771Z" fill="#3F3D56"/>
  <path d="M378.416 321.771H380.776C380.974 321.771 381.134 321.611 381.134 321.413V320.285C381.134 320.087 380.974 319.926 380.776 319.926H378.416C378.218 319.926 378.057 320.087 378.057 320.285V321.413C378.057 321.611 378.218 321.771 378.416 321.771Z" fill="#3F3D56"/>
  <path d="M372.262 321.771H374.622C374.82 321.771 374.98 321.611 374.98 321.413V320.285C374.98 320.087 374.82 319.926 374.622 319.926H372.262C372.064 319.926 371.904 320.087 371.904 320.285V321.413C371.904 321.611 372.064 321.771 372.262 321.771Z" fill="#3F3D56"/>
  <path d="M366.108 321.771H368.468C368.666 321.771 368.827 321.611 368.827 321.413V320.285C368.827 320.087 368.666 319.926 368.468 319.926H366.108C365.91 319.926 365.75 320.087 365.75 320.285V321.413C365.75 321.611 365.91 321.771 366.108 321.771Z" fill="#3F3D56"/>
  <path d="M407.339 325.46H431.236C431.434 325.46 431.595 325.299 431.595 325.102V323.974C431.595 323.776 431.434 323.615 431.236 323.615H407.339C407.141 323.615 406.98 323.776 406.98 323.974V325.102C406.98 325.299 407.141 325.46 407.339 325.46Z" fill="#3F3D56"/>
  <path d="M382.02 263.29H379.931C379.297 263.29 378.784 263.803 378.784 264.435C378.784 265.068 379.297 265.581 379.931 265.581H382.02C382.653 265.581 383.166 265.068 383.166 264.435C383.166 263.803 382.653 263.29 382.02 263.29Z" fill="white"/>
  <path d="M405.911 263.29H403.822C403.189 263.29 402.675 263.803 402.675 264.435C402.675 265.068 403.189 265.581 403.822 265.581H405.911C406.545 265.581 407.058 265.068 407.058 264.435C407.058 263.803 406.545 263.29 405.911 263.29Z" fill="white"/>
  <path d="M412.68 263.29H410.591C409.958 263.29 409.445 263.803 409.445 264.435C409.445 265.068 409.958 265.581 410.591 265.581H412.68C413.314 265.581 413.827 265.068 413.827 264.435C413.827 263.803 413.314 263.29 412.68 263.29Z" fill="white"/>
  <path d="M399.413 263.099H386.429C385.796 263.099 385.283 263.612 385.283 264.244C385.283 264.877 385.796 265.39 386.429 265.39H399.413C400.046 265.39 400.559 264.877 400.559 264.244C400.559 263.612 400.046 263.099 399.413 263.099Z" fill="white"/>
  <path d="M431.268 263.099H418.285C417.651 263.099 417.138 263.612 417.138 264.244C417.138 264.877 417.651 265.39 418.285 265.39H431.268C431.901 265.39 432.415 264.877 432.415 264.244C432.415 263.612 431.901 263.099 431.268 263.099Z" fill="white"/>
  <path d="M388.391 268.461H386.302C385.668 268.461 385.155 268.974 385.155 269.607C385.155 270.24 385.668 270.753 386.302 270.753H388.391C389.024 270.753 389.538 270.24 389.538 269.607C389.538 268.974 389.024 268.461 388.391 268.461Z" fill="white"/>
  <path d="M412.282 268.461H410.193C409.56 268.461 409.046 268.974 409.046 269.607C409.046 270.24 409.56 270.753 410.193 270.753H412.282C412.916 270.753 413.429 270.24 413.429 269.607C413.429 268.974 412.916 268.461 412.282 268.461Z" fill="white"/>
  <path d="M419.051 268.461H416.963C416.329 268.461 415.816 268.974 415.816 269.607C415.816 270.24 416.329 270.753 416.963 270.753H419.051C419.685 270.753 420.198 270.24 420.198 269.607C420.198 268.974 419.685 268.461 419.051 268.461Z" fill="white"/>
  <path d="M405.784 268.27H392.8C392.167 268.27 391.654 268.783 391.654 269.416C391.654 270.049 392.167 270.562 392.8 270.562H405.784C406.417 270.562 406.93 270.049 406.93 269.416C406.93 268.783 406.417 268.27 405.784 268.27Z" fill="white"/>
  <path d="M437.639 268.27H424.656C424.022 268.27 423.509 268.783 423.509 269.416C423.509 270.049 424.022 270.562 424.656 270.562H437.639C438.272 270.562 438.786 270.049 438.786 269.416C438.786 268.783 438.272 268.27 437.639 268.27Z" fill="white"/>
  <path d="M394.762 273.633H392.673C392.039 273.633 391.526 274.146 391.526 274.779C391.526 275.412 392.039 275.925 392.673 275.925H394.762C395.395 275.925 395.909 275.412 395.909 274.779C395.909 274.146 395.395 273.633 394.762 273.633Z" fill="white"/>
  <path d="M418.653 273.633H416.564C415.931 273.633 415.418 274.146 415.418 274.779C415.418 275.412 415.931 275.925 416.564 275.925H418.653C419.287 275.925 419.8 275.412 419.8 274.779C419.8 274.146 419.287 273.633 418.653 273.633Z" fill="white"/>
  <path d="M425.423 273.633H423.334C422.7 273.633 422.187 274.146 422.187 274.779C422.187 275.412 422.7 275.925 423.334 275.925H425.423C426.056 275.925 426.569 275.412 426.569 274.779C426.569 274.146 426.056 273.633 425.423 273.633Z" fill="white"/>
  <path d="M412.155 273.442H399.171C398.538 273.442 398.025 273.955 398.025 274.588C398.025 275.221 398.538 275.734 399.171 275.734H412.155C412.788 275.734 413.301 275.221 413.301 274.588C413.301 273.955 412.788 273.442 412.155 273.442Z" fill="white"/>
  <path d="M444.01 273.442H431.027C430.393 273.442 429.88 273.955 429.88 274.588C429.88 275.221 430.393 275.734 431.027 275.734H444.01C444.643 275.734 445.157 275.221 445.157 274.588C445.157 273.955 444.643 273.442 444.01 273.442Z" fill="white"/>
  <path d="M401.133 278.805H399.044C398.411 278.805 397.897 279.318 397.897 279.951C397.897 280.584 398.411 281.096 399.044 281.096H401.133C401.766 281.096 402.28 280.584 402.28 279.951C402.28 279.318 401.766 278.805 401.133 278.805Z" fill="white"/>
  <path d="M425.024 278.805H422.935C422.302 278.805 421.789 279.318 421.789 279.951C421.789 280.584 422.302 281.096 422.935 281.096H425.024C425.658 281.096 426.171 280.584 426.171 279.951C426.171 279.318 425.658 278.805 425.024 278.805Z" fill="white"/>
  <path d="M431.794 278.805H429.705C429.071 278.805 428.558 279.318 428.558 279.951C428.558 280.584 429.071 281.096 429.705 281.096H431.794C432.427 281.096 432.94 280.584 432.94 279.951C432.94 279.318 432.427 278.805 431.794 278.805Z" fill="white"/>
  <path d="M418.526 278.614H405.542C404.909 278.614 404.396 279.127 404.396 279.76C404.396 280.393 404.909 280.906 405.542 280.906H418.526C419.159 280.906 419.673 280.393 419.673 279.76C419.673 279.127 419.159 278.614 418.526 278.614Z" fill="white"/>
  <path d="M405.911 299.37H403.822C403.189 299.37 402.675 299.883 402.675 300.516C402.675 301.149 403.189 301.662 403.822 301.662H405.911C406.545 301.662 407.058 301.149 407.058 300.516C407.058 299.883 406.545 299.37 405.911 299.37Z" fill="white"/>
  <path d="M412.68 299.37H410.591C409.958 299.37 409.445 299.883 409.445 300.516C409.445 301.149 409.958 301.662 410.591 301.662H412.68C413.314 301.662 413.827 301.149 413.827 300.516C413.827 299.883 413.314 299.37 412.68 299.37Z" fill="white"/>
  <path d="M431.268 299.561H418.285C417.651 299.561 417.138 300.074 417.138 300.707C417.138 301.34 417.651 301.853 418.285 301.853H431.268C431.901 301.853 432.415 301.34 432.415 300.707C432.415 300.074 431.901 299.561 431.268 299.561Z" fill="white"/>
  <path d="M382.02 299.37H379.931C379.297 299.37 378.784 299.883 378.784 300.516C378.784 301.149 379.297 301.662 379.931 301.662H382.02C382.653 301.662 383.166 301.149 383.166 300.516C383.166 299.883 382.653 299.37 382.02 299.37Z" fill="white"/>
  <path d="M399.413 299.561H386.429C385.796 299.561 385.283 300.074 385.283 300.707C385.283 301.34 385.796 301.853 386.429 301.853H399.413C400.046 301.853 400.559 301.34 400.559 300.707C400.559 300.074 400.046 299.561 399.413 299.561Z" fill="white"/>
  <path d="M388.391 294.198H386.302C385.668 294.198 385.155 294.711 385.155 295.344C385.155 295.977 385.668 296.49 386.302 296.49H388.391C389.024 296.49 389.538 295.977 389.538 295.344C389.538 294.711 389.024 294.198 388.391 294.198Z" fill="white"/>
  <path d="M412.282 294.198H410.193C409.56 294.198 409.046 294.711 409.046 295.344C409.046 295.977 409.56 296.49 410.193 296.49H412.282C412.916 296.49 413.429 295.977 413.429 295.344C413.429 294.711 412.916 294.198 412.282 294.198Z" fill="white"/>
  <path d="M419.051 294.198H416.963C416.329 294.198 415.816 294.711 415.816 295.344C415.816 295.977 416.329 296.49 416.963 296.49H419.051C419.685 296.49 420.198 295.977 420.198 295.344C420.198 294.711 419.685 294.198 419.051 294.198Z" fill="white"/>
  <path d="M405.784 294.39H392.8C392.167 294.39 391.654 294.902 391.654 295.535C391.654 296.168 392.167 296.681 392.8 296.681H405.784C406.417 296.681 406.93 296.168 406.93 295.535C406.93 294.902 406.417 294.39 405.784 294.39Z" fill="white"/>
  <path d="M394.762 289.027H392.673C392.039 289.027 391.526 289.54 391.526 290.172C391.526 290.805 392.039 291.318 392.673 291.318H394.762C395.395 291.318 395.909 290.805 395.909 290.172C395.909 289.54 395.395 289.027 394.762 289.027Z" fill="white"/>
  <path d="M418.653 289.027H416.564C415.931 289.027 415.418 289.54 415.418 290.172C415.418 290.805 415.931 291.318 416.564 291.318H418.653C419.287 291.318 419.8 290.805 419.8 290.172C419.8 289.54 419.287 289.027 418.653 289.027Z" fill="white"/>
  <path d="M425.423 289.027H423.334C422.7 289.027 422.187 289.54 422.187 290.172C422.187 290.805 422.7 291.318 423.334 291.318H425.423C426.056 291.318 426.569 290.805 426.569 290.172C426.569 289.54 426.056 289.027 425.423 289.027Z" fill="white"/>
  <path d="M412.155 289.218H399.171C398.538 289.218 398.025 289.731 398.025 290.363C398.025 290.996 398.538 291.509 399.171 291.509H412.155C412.788 291.509 413.301 290.996 413.301 290.363C413.301 289.731 412.788 289.218 412.155 289.218Z" fill="white"/>
  <path d="M401.133 283.855H399.044C398.411 283.855 397.897 284.368 397.897 285.001C397.897 285.633 398.411 286.146 399.044 286.146H401.133C401.766 286.146 402.28 285.633 402.28 285.001C402.28 284.368 401.766 283.855 401.133 283.855Z" fill="white"/>
  <path d="M425.024 283.855H422.935C422.302 283.855 421.789 284.368 421.789 285.001C421.789 285.633 422.302 286.146 422.935 286.146H425.024C425.658 286.146 426.171 285.633 426.171 285.001C426.171 284.368 425.658 283.855 425.024 283.855Z" fill="white"/>
  <path d="M431.794 283.855H429.705C429.071 283.855 428.558 284.368 428.558 285.001C428.558 285.633 429.071 286.146 429.705 286.146H431.794C432.427 286.146 432.94 285.633 432.94 285.001C432.94 284.368 432.427 283.855 431.794 283.855Z" fill="white"/>
  <path d="M418.526 284.046H405.542C404.909 284.046 404.396 284.559 404.396 285.192C404.396 285.824 404.909 286.337 405.542 286.337H418.526C419.159 286.337 419.673 285.824 419.673 285.192C419.673 284.559 419.159 284.046 418.526 284.046Z" fill="white"/>
  <path d="M370.914 359.982L361.107 344.494L391.888 319.979L404.593 305.916C406.244 304.089 408.346 302.727 410.688 301.965C413.031 301.204 415.533 301.07 417.943 301.578C420.354 302.085 422.589 303.215 424.425 304.856C426.262 306.497 427.635 308.59 428.408 310.927C429.553 314.39 429.307 318.163 427.721 321.448C426.135 324.733 423.334 327.274 419.908 328.535L399.818 335.93L370.914 359.982Z" fill="#FFB6B6"/>
  <path d="M140.816 247.689V322.961H193.597V247.689C193.598 247.148 193.425 246.62 193.104 246.184C192.783 245.748 192.33 245.427 191.812 245.267C191.568 245.186 191.312 245.147 191.055 245.15H143.365C143.031 245.149 142.7 245.214 142.39 245.341C142.081 245.469 141.8 245.656 141.564 245.891C141.327 246.127 141.139 246.407 141.011 246.716C140.882 247.024 140.816 247.355 140.816 247.689ZM161.414 273.553C161.428 272.069 162.028 270.65 163.083 269.606C164.138 268.561 165.563 267.976 167.049 267.976C168.534 267.976 169.959 268.561 171.014 269.606C172.07 270.65 172.669 272.069 172.683 273.553V282.287C172.675 283.775 172.078 285.199 171.023 286.249C169.967 287.298 168.538 287.887 167.049 287.887C165.559 287.887 164.13 287.298 163.075 286.249C162.019 285.199 161.422 283.775 161.414 282.287V273.553Z" fill="#2F2E41"/>
  <path d="M140.654 320.554V327.813C140.656 328.189 140.805 328.549 141.071 328.816C141.336 329.082 141.696 329.233 142.072 329.237H192.341C192.718 329.235 193.078 329.084 193.344 328.817C193.61 328.55 193.759 328.189 193.759 327.813V320.554H140.654Z" fill="#3F3D56"/>
  <path d="M57.7838 134.281V271.718C57.7852 273.469 58.4822 275.149 59.7218 276.387C60.9614 277.626 62.6422 278.322 64.3952 278.323H268.247C270.001 278.322 271.681 277.626 272.921 276.387C274.161 275.149 274.858 273.469 274.859 271.718V134.281C274.855 132.531 274.157 130.855 272.917 129.618C271.678 128.381 269.999 127.686 268.247 127.683H64.3952C62.6437 127.686 60.9645 128.381 59.7253 129.618C58.4861 130.855 57.788 132.531 57.7838 134.281Z" fill="#3F3D56"/>
  <path d="M62.5661 135.991V270.023C62.5677 270.958 62.9405 271.855 63.6028 272.517C64.2651 273.179 65.1629 273.551 66.0995 273.553H266.551C267.487 273.551 268.385 273.179 269.047 272.517C269.71 271.855 270.082 270.958 270.084 270.023V135.991C270.084 135.054 269.712 134.156 269.049 133.493C268.387 132.829 267.488 132.456 266.551 132.454H66.0995C65.1618 132.456 64.2631 132.829 63.6007 133.493C62.9383 134.156 62.5662 135.054 62.5661 135.991Z" fill="white"/>
  <path d="M99.7664 328.745C99.9704 329 100.23 329.206 100.525 329.348C100.82 329.489 101.143 329.561 101.471 329.559H220.726C221.052 329.559 221.374 329.486 221.668 329.346C221.963 329.205 222.222 329.001 222.428 328.748C222.633 328.495 222.779 328.199 222.856 327.883C222.933 327.566 222.938 327.236 222.871 326.917L221.02 318.132C220.943 317.774 220.778 317.44 220.539 317.162C220.301 316.884 219.996 316.67 219.654 316.539C219.405 316.442 219.141 316.392 218.875 316.393H103.315C103.048 316.392 102.784 316.442 102.536 316.539C102.193 316.67 101.889 316.884 101.65 317.162C101.411 317.44 101.246 317.774 101.169 318.132L99.3183 326.917C99.2524 327.236 99.2584 327.565 99.336 327.882C99.4135 328.198 99.5605 328.493 99.7664 328.745Z" fill="#2F2E41"/>
  <path d="M260.045 150.917H72.4841C72.2891 150.913 72.1036 150.833 71.9673 150.693C71.8309 150.554 71.7546 150.367 71.7546 150.172C71.7546 149.977 71.8309 149.79 71.9673 149.651C72.1036 149.512 72.2891 149.431 72.4841 149.427H260.045C260.24 149.431 260.426 149.512 260.562 149.651C260.698 149.79 260.775 149.977 260.775 150.172C260.775 150.367 260.698 150.554 260.562 150.693C260.426 150.833 260.24 150.913 260.045 150.917Z" fill="#3F3D56"/>
  <path d="M85.2516 145.622C87.6657 145.622 89.6228 143.623 89.6228 141.157C89.6228 138.692 87.6657 136.693 85.2516 136.693C82.8375 136.693 80.8804 138.692 80.8804 141.157C80.8804 143.623 82.8375 145.622 85.2516 145.622Z" fill="#3F3D56"/>
  <path d="M100.352 145.622C102.766 145.622 104.723 143.623 104.723 141.157C104.723 138.692 102.766 136.693 100.352 136.693C97.9379 136.693 95.9809 138.692 95.9809 141.157C95.9809 143.623 97.9379 145.622 100.352 145.622Z" fill="#3F3D56"/>
  <path d="M115.453 145.622C117.867 145.622 119.824 143.623 119.824 141.157C119.824 138.692 117.867 136.693 115.453 136.693C113.038 136.693 111.081 138.692 111.081 141.157C111.081 143.623 113.038 145.622 115.453 145.622Z" fill="#3F3D56"/>
  <path d="M250.952 137.797H240.227C240.015 137.802 239.813 137.889 239.665 138.041C239.517 138.193 239.434 138.396 239.434 138.608C239.434 138.82 239.517 139.023 239.665 139.175C239.813 139.326 240.015 139.414 240.227 139.419H250.952C251.166 139.416 251.369 139.329 251.519 139.177C251.669 139.026 251.753 138.821 251.753 138.608C251.753 138.395 251.669 138.19 251.519 138.038C251.369 137.887 251.166 137.8 250.952 137.797Z" fill="#3F3D56"/>
  <path d="M250.952 140.843H240.227C240.015 140.847 239.813 140.935 239.665 141.087C239.516 141.238 239.433 141.442 239.433 141.654C239.433 141.866 239.516 142.069 239.665 142.221C239.813 142.373 240.015 142.46 240.227 142.465H250.952C251.166 142.462 251.37 142.376 251.52 142.224C251.67 142.072 251.754 141.867 251.754 141.654C251.754 141.44 251.67 141.236 251.52 141.084C251.37 140.932 251.166 140.845 250.952 140.843Z" fill="#3F3D56"/>
  <path d="M250.952 143.889H240.227C240.015 143.893 239.813 143.981 239.665 144.133C239.517 144.284 239.434 144.488 239.434 144.7C239.434 144.911 239.517 145.115 239.665 145.266C239.813 145.418 240.015 145.506 240.227 145.511H250.952C251.166 145.508 251.369 145.421 251.519 145.269C251.669 145.117 251.753 144.913 251.753 144.7C251.753 144.486 251.669 144.282 251.519 144.13C251.369 143.978 251.166 143.892 250.952 143.889Z" fill="#3F3D56"/>
  <path d="M509.517 323.74C509.841 324.681 510.455 325.496 511.271 326.067C512.087 326.638 513.063 326.936 514.059 326.918L533.52 326.418C534.524 326.398 535.494 326.055 536.286 325.439C537.078 324.823 537.649 323.967 537.914 323L540.668 293.579C541.645 294.021 542.709 294.239 543.781 294.218C544.713 294.194 545.631 293.988 546.483 293.61C547.334 293.232 548.103 292.69 548.746 292.016C549.388 291.341 549.891 290.546 550.226 289.677C550.561 288.808 550.721 287.882 550.698 286.951C550.675 286.02 550.468 285.103 550.09 284.252C549.711 283.401 549.169 282.633 548.494 281.991C547.819 281.349 547.023 280.847 546.153 280.512C545.284 280.177 544.357 280.017 543.425 280.041C542.996 280.039 542.569 280.084 542.149 280.173C541.693 279.68 541.139 279.288 540.523 279.023C539.906 278.757 539.24 278.623 538.569 278.63L508.633 279.402C508.385 279.411 508.138 279.442 507.895 279.494C507.239 279.616 506.616 279.877 506.069 280.26C505.522 280.643 505.064 281.138 504.724 281.713C504.385 282.288 504.173 282.928 504.103 283.592C504.032 284.255 504.105 284.926 504.315 285.559L509.517 323.74ZM541.233 291.581L543.192 284.57C543.415 283.76 543.42 282.906 543.207 282.093C543.302 282.093 543.386 282.048 543.481 282.048C544.825 282.02 546.125 282.526 547.096 283.454C548.067 284.382 548.63 285.657 548.661 287C548.693 288.342 548.19 289.642 547.264 290.615C546.337 291.587 545.062 292.153 543.719 292.189C542.85 292.216 541.991 292.006 541.233 291.581Z" fill="#2F2E41"/>
  <path d="M507.895 279.494C508.533 283.137 515.703 285.698 524.325 285.253C532.253 284.888 538.736 282.107 539.924 278.81C539.484 278.68 539.027 278.619 538.569 278.63L508.633 279.402C508.385 279.411 508.138 279.442 507.895 279.494Z" fill="#3F3D56"/>
  <path d="M525.905 307.572C525.945 307.562 525.982 307.546 526.016 307.524L530.242 304.76C530.293 304.727 530.335 304.681 530.364 304.628C530.394 304.574 530.409 304.514 530.409 304.453C530.409 304.392 530.394 304.332 530.365 304.279C530.336 304.225 530.294 304.179 530.243 304.146L525.85 301.272C525.81 301.245 525.764 301.226 525.717 301.217C525.669 301.208 525.621 301.208 525.573 301.218C525.526 301.228 525.481 301.247 525.441 301.274C525.401 301.301 525.367 301.336 525.34 301.376C525.314 301.417 525.295 301.462 525.287 301.509C525.278 301.557 525.278 301.606 525.288 301.653C525.298 301.7 525.317 301.745 525.344 301.785C525.372 301.825 525.407 301.859 525.447 301.885L529.371 304.452L525.614 306.91C525.541 306.957 525.488 307.029 525.463 307.112C525.438 307.195 525.444 307.285 525.479 307.364C525.514 307.444 525.576 307.508 525.654 307.546C525.732 307.584 525.821 307.594 525.905 307.572Z" fill="#7E22CE"/>
  <path d="M519.23 307.88C519.301 307.862 519.365 307.823 519.414 307.769C519.462 307.714 519.494 307.647 519.504 307.574C519.514 307.502 519.502 307.428 519.47 307.362C519.437 307.297 519.386 307.242 519.323 307.206L515.427 304.974L519.192 302.18C519.231 302.152 519.264 302.115 519.288 302.074C519.313 302.033 519.33 301.987 519.337 301.939C519.344 301.892 519.341 301.843 519.329 301.796C519.318 301.75 519.297 301.706 519.268 301.667C519.239 301.628 519.203 301.596 519.162 301.571C519.12 301.546 519.075 301.53 519.027 301.523C518.979 301.516 518.931 301.519 518.884 301.53C518.837 301.542 518.793 301.563 518.755 301.592L514.539 304.72C514.49 304.756 514.451 304.804 514.425 304.859C514.399 304.915 514.387 304.975 514.391 305.036C514.395 305.097 514.413 305.156 514.446 305.208C514.478 305.259 514.522 305.302 514.575 305.333L518.957 307.843C519.04 307.89 519.138 307.903 519.23 307.88Z" fill="#7E22CE"/>
  <path d="M525.485 309.994C525.52 309.985 525.554 309.971 525.585 309.952C525.627 309.927 525.663 309.894 525.691 309.855C525.72 309.816 525.74 309.772 525.752 309.725C525.763 309.678 525.765 309.63 525.758 309.582C525.75 309.534 525.734 309.489 525.709 309.448L519.717 299.607C519.667 299.524 519.585 299.464 519.49 299.441C519.396 299.419 519.296 299.434 519.213 299.485C519.13 299.535 519.07 299.617 519.047 299.711C519.024 299.806 519.039 299.906 519.09 299.989L525.081 309.83C525.122 309.897 525.183 309.949 525.256 309.978C525.328 310.008 525.409 310.014 525.485 309.994Z" fill="#7E22CE"/>
  <path d="M188.675 191.43H156.212C154.888 191.43 153.814 192.503 153.814 193.826V196.995C153.814 198.318 154.888 199.39 156.212 199.39H188.675C189.999 199.39 191.073 198.318 191.073 196.995V193.826C191.073 192.503 189.999 191.43 188.675 191.43Z" fill="#7E22CE"/>
  <path d="M207.597 207.35H137.29C135.966 207.35 134.892 208.423 134.892 209.746V212.915C134.892 214.238 135.966 215.31 137.29 215.31H207.597C208.922 215.31 209.995 214.238 209.995 212.915V209.746C209.995 208.423 208.922 207.35 207.597 207.35Z" fill="#E6E6E6"/>
  <path d="M207.597 223.27H137.29C135.966 223.27 134.892 224.343 134.892 225.666V228.835C134.892 230.158 135.966 231.23 137.29 231.23H207.597C208.922 231.23 209.995 230.158 209.995 228.835V225.666C209.995 224.343 208.922 223.27 207.597 223.27Z" fill="#E6E6E6"/>
  <path d="M213.557 276.58L213.716 277.083L213.725 277.099L218.518 291.659L224.032 308.438L234.407 339.969L234.507 344.866V344.883L235.278 384.284L233.142 389.626L235.547 398.383C235.547 398.383 234.44 385.145 228.507 392.748C225.147 397.068 221.217 401.488 217.99 405.633C222.692 407.533 227.468 409.253 232.32 410.79C233.368 411.125 234.424 411.443 235.48 411.762C235.706 411.829 235.932 411.895 236.158 411.962C252.242 416.715 268.87 419.385 285.634 419.908C286.506 419.933 287.361 419.95 288.19 419.967C288.484 419.975 288.769 419.983 289.054 419.983C289.992 419.992 290.922 420 291.861 420C293.755 420 295.64 419.972 297.517 419.916C311.411 419.525 325.224 417.659 338.722 414.349C338.63 408.781 338.379 402.275 338.018 395.326C337.851 391.919 334.088 388.226 333.862 384.66C333.703 381.981 337.08 379.46 336.904 376.739C335.764 359.986 334.34 366.417 333.284 354.553C333.175 353.39 333.074 352.276 332.982 351.213C332.303 343.594 331.834 338.83 331.834 338.83L336.343 310.439L343.424 265.864L342.879 264.968L342.267 264.666L304.917 246.197L302.889 241.006C302.298 239.51 301.273 238.226 299.945 237.317C298.618 236.408 297.048 235.917 295.439 235.907L270.835 235.806C269.558 235.801 268.299 236.099 267.16 236.677C266.022 237.255 265.038 238.096 264.29 239.13L257.628 248.348L213.557 276.58Z" fill="#3F3D56"/>
  <path d="M240.08 332.952L234.507 344.866L230.703 353.004L224.158 387.24L220.881 390.714L218.074 378.414L188.692 384.932C187.728 379.582 188.434 385.113 187.839 379.244C188.006 379.076 188.182 378.909 188.358 378.741C188.828 378.306 189.221 377.896 189.213 377.502C188.878 357.258 189.883 322.805 198.28 301.932C199.595 298.524 201.329 295.293 203.442 292.312C203.61 292.086 203.769 291.86 203.928 291.634C207.8 286.217 210.247 280.884 213.716 277.091V277.083C213.738 277.065 213.758 277.046 213.775 277.024C213.788 277.018 213.799 277.009 213.809 276.999L237.642 264.373L238.664 293.074L239.393 313.704L240.08 332.952Z" fill="#3F3D56"/>
  <path d="M326.018 336.336L332.979 351.217L335.408 356.399L341.951 390.631L345.217 394.097L348.031 381.8L349.353 381.529L373.197 376.595L380.147 398.647C381.713 396.04 382.331 392.972 381.894 389.962C381.457 386.952 379.994 384.186 377.751 382.129C377.277 381.7 376.881 381.283 376.892 380.888C377.288 357.076 375.83 313.598 362.665 295.703C358.484 290.024 355.975 284.367 352.325 280.416C352.314 280.405 352.314 280.393 352.303 280.393L343.42 265.863L342.878 264.971L342.268 264.666L326.018 336.336Z" fill="#3F3D56"/>
  <path d="M283.848 228.811C301.926 228.811 316.581 214.169 316.581 196.108C316.581 178.047 301.926 163.405 283.848 163.405C265.77 163.405 251.115 178.047 251.115 196.108C251.115 214.169 265.77 228.811 283.848 228.811Z" fill="#FFB6B6"/>
  <path d="M328.09 173.265C327.836 172.994 327.53 172.777 327.191 172.627C326.851 172.477 326.485 172.397 326.114 172.392L326.606 171.027C326.767 170.597 326.81 170.132 326.732 169.679C326.653 169.227 326.456 168.804 326.16 168.453C325.864 168.102 325.48 167.836 325.047 167.682C324.614 167.528 324.148 167.492 323.697 167.577L321.905 167.922L322.073 166.726C322.138 166.28 322.086 165.825 321.921 165.406C321.757 164.987 321.486 164.618 321.136 164.335C320.785 164.052 320.367 163.865 319.922 163.793C319.477 163.72 319.021 163.765 318.599 163.922C318.215 164.073 317.801 164.136 317.39 164.107C316.978 164.078 316.578 163.957 316.219 163.753C315.858 163.556 315.545 163.282 315.302 162.951C315.058 162.62 314.89 162.24 314.808 161.838L314.184 158.828L314.118 158.667C311.076 153.603 305.229 149.919 298.074 148.568C291.705 147.357 285.174 147.974 278.879 148.553C276.381 148.788 273.56 149.052 271.21 150.491C269.211 151.724 267.522 154.19 267.867 156.678C261.66 154.777 255.004 158.572 251.706 163.357C247.798 169.052 247.159 176.186 247.056 181.764C246.777 194.96 249.502 205.756 255.136 213.859C255.548 214.446 255.651 215.672 256.466 216.083L256.297 215.811C257.208 216.266 258.134 217 257.788 217.785C256.797 220.046 263.386 225.044 268.029 226.695C276.499 229.712 287.76 229.455 295.679 228.369L295.958 226.497C298.816 226.108 300.829 225.367 301.394 224.207C302.393 223.356 303.246 222.593 303.988 221.888L303.995 221.881C304.01 221.866 304.039 221.844 304.054 221.829C307.631 218.402 308.461 216.45 308.836 213.477C309.196 210.564 308.557 207.606 307.903 204.942C321.669 207.07 302.482 190.292 315.308 187.048C315.455 187.003 315.605 186.966 315.756 186.938C316.131 186.85 316.505 186.762 316.865 186.659C318.6 186.189 320.262 185.48 321.802 184.553C325.387 182.373 326.569 179.481 328.42 176.223C328.688 175.759 328.8 175.222 328.74 174.69C328.681 174.158 328.453 173.659 328.09 173.265Z" fill="#2F2E41"/>
  <path d="M399.618 338.665C399.611 339.949 399.596 341.747 399.537 343.971C399.53 344.279 399.523 344.595 399.515 344.918C399.42 349.006 399.324 352.433 399.17 356.242C399.163 356.507 399.155 356.763 399.141 357.028C398.935 362.341 398.612 368.528 398.053 378.326C397.018 396.425 395.21 380.814 393.396 387.163C393.308 387.479 393.212 387.853 393.124 388.293C392.849 389.891 392.386 391.451 391.743 392.939C390.781 393.512 389.789 394.062 388.812 394.612C386.028 396.161 383.2 397.651 380.35 399.067C378.748 399.86 377.139 400.638 375.523 401.387C375.266 401.504 375.016 401.622 374.767 401.732C366.491 405.556 357.961 408.808 349.239 411.464C347.535 411.977 345.838 412.476 344.119 412.939C342.327 413.438 340.534 413.908 338.72 414.348C325.221 417.659 311.409 419.526 297.516 419.919C295.643 419.977 293.755 419.999 291.859 419.999C290.919 419.999 289.993 419.992 289.053 419.985C288.767 419.985 288.48 419.977 288.194 419.97C287.364 419.948 286.504 419.933 285.637 419.911C268.873 419.389 252.245 416.717 236.162 411.963L235.479 411.765C234.421 411.442 233.37 411.126 232.32 410.788C227.471 409.254 222.694 407.537 217.988 405.636C214.395 404.19 210.845 402.639 207.336 400.983C207.304 400.974 207.274 400.959 207.248 400.939C206.513 400.601 205.771 400.249 205.037 399.889C204.941 399.838 204.838 399.787 204.735 399.735C201.995 398.4 199.285 397 196.603 395.537C194.348 390.363 191.175 389.372 189.206 384.822C188.633 383.47 188.219 382.056 187.972 380.609C187.972 380.594 187.964 380.58 187.964 380.558C188.17 383.288 187.09 375.714 187.957 380.528C187.95 380.44 187.942 380.345 187.935 380.235C187.913 379.97 187.884 379.648 187.84 379.244C185.32 354.664 185.482 326.555 184.387 303.392C184.313 301.894 184.238 300.461 184.159 299.091C184.137 298.636 184.108 298.188 184.078 297.748C184.13 297.616 184.189 297.476 184.255 297.344C184.269 297.306 184.286 297.269 184.306 297.234C184.328 297.188 184.352 297.144 184.38 297.102C184.394 297.08 184.416 297.05 184.431 297.028C184.442 297.003 184.454 296.979 184.468 296.955C184.534 296.852 184.607 296.742 184.688 296.639C184.725 296.595 184.754 296.559 184.791 296.522C184.816 296.485 184.846 296.45 184.879 296.419C184.902 296.384 184.929 296.352 184.96 296.324C184.989 296.295 185.019 296.258 185.055 296.221C185.071 296.198 185.091 296.178 185.114 296.162C185.172 296.096 185.236 296.034 185.305 295.979C185.567 295.738 185.847 295.517 186.143 295.318C186.245 295.252 186.356 295.186 186.459 295.113C187.199 294.67 187.978 294.297 188.787 293.997C189.066 293.895 189.346 293.799 189.647 293.696C189.757 293.667 189.86 293.63 189.97 293.594C190.132 293.542 190.293 293.491 190.462 293.454C191.3 293.205 192.203 292.992 193.18 292.794C193.298 292.772 193.423 292.75 193.547 292.72C193.724 292.684 193.907 292.654 194.091 292.625C194.341 292.581 194.598 292.537 194.855 292.493C197.037 292.148 199.512 291.891 202.245 291.722C202.502 291.707 202.759 291.693 203.016 291.678C203.318 291.663 203.619 291.649 203.927 291.634C204.184 291.619 204.449 291.612 204.713 291.605C204.971 291.59 205.235 291.583 205.507 291.575C206.249 291.553 207.013 291.531 207.791 291.517C210.01 291.473 212.346 291.487 214.8 291.539C215.938 291.568 217.099 291.597 218.289 291.649C218.37 291.649 218.443 291.656 218.517 291.656C219.552 291.693 220.596 291.737 221.668 291.796C222.417 291.832 223.174 291.869 223.931 291.913C224.643 291.957 225.363 292.001 226.09 292.052C226.656 292.082 227.222 292.126 227.795 292.163C228.279 292.199 228.764 292.236 229.249 292.265L229.91 292.309C230.27 292.339 230.63 292.361 230.997 292.397C231.806 292.463 232.614 292.529 233.436 292.596C234.252 292.669 235.082 292.742 235.912 292.816C236.742 292.889 237.579 292.97 238.417 293.051C238.505 293.058 238.586 293.065 238.667 293.073C239.431 293.153 240.195 293.227 240.966 293.307C241.142 293.322 241.326 293.337 241.502 293.359C242.238 293.433 242.987 293.519 243.73 293.598C243.957 293.622 244.184 293.646 244.412 293.671C244.994 293.734 245.567 293.789 246.152 293.858C246.924 293.946 247.71 294.027 248.474 294.129C249.069 294.195 249.664 294.262 250.259 294.335C251.192 294.445 252.139 294.562 253.087 294.687C253.447 294.731 253.807 294.775 254.167 294.827C256.87 295.164 259.603 295.539 262.38 295.928C266.589 296.522 270.864 297.168 275.169 297.865C279.481 298.562 283.818 299.299 288.179 300.074C289.281 300.273 290.383 300.471 291.492 300.676C291.991 300.771 292.491 300.867 292.99 300.962C293.843 301.116 294.695 301.278 295.547 301.439C296.399 301.601 297.251 301.762 298.103 301.931C299.117 302.129 300.138 302.327 301.152 302.526C307.829 303.847 314.47 305.256 320.949 306.731C322.015 306.973 323.08 307.223 324.138 307.465C326.253 307.957 328.349 308.456 330.426 308.962C330.999 309.094 331.564 309.234 332.13 309.373C333.541 309.726 334.951 310.078 336.339 310.437L336.582 310.503C337.603 310.753 338.602 311.01 339.601 311.274C341.959 311.891 344.278 312.514 346.558 313.146C348.071 313.564 349.567 313.987 351.046 314.415C353.257 315.054 355.424 315.7 357.533 316.353C358.054 316.514 358.576 316.676 359.09 316.83C360.633 317.307 362.153 317.791 363.63 318.276C364.805 318.658 365.951 319.047 367.083 319.436C368.214 319.824 369.323 320.213 370.41 320.602C371.108 320.852 371.799 321.116 372.489 321.366C373.481 321.733 374.458 322.1 375.413 322.467C375.707 322.577 375.993 322.694 376.28 322.804C376.463 322.885 376.64 322.951 376.816 323.024C377.161 323.164 377.514 323.296 377.852 323.435C378.197 323.568 378.535 323.707 378.873 323.854C379.203 323.986 379.541 324.125 379.865 324.265C380.195 324.397 380.518 324.536 380.842 324.683C381.113 324.793 381.378 324.911 381.635 325.028C382.157 325.256 382.678 325.483 383.185 325.718C383.435 325.835 383.685 325.945 383.934 326.063L384.507 326.327C384.588 326.371 384.669 326.408 384.75 326.445C384.933 326.533 385.124 326.628 385.308 326.716C385.734 326.914 386.153 327.127 386.564 327.325C387.115 327.604 387.651 327.883 388.166 328.155C388.687 328.434 389.194 328.712 389.679 328.984C389.76 329.028 389.833 329.072 389.914 329.116C390.024 329.175 390.134 329.241 390.245 329.3C390.619 329.512 390.979 329.733 391.339 329.945C392.044 330.378 392.713 330.804 393.337 331.23C393.477 331.325 393.609 331.421 393.749 331.509C394.211 331.839 394.652 332.162 395.064 332.492C395.064 332.499 395.064 332.499 395.071 332.499C395.21 332.602 395.343 332.712 395.475 332.815C395.585 332.918 395.703 333.006 395.813 333.109C396.195 333.439 396.547 333.754 396.871 334.077C396.979 334.177 397.082 334.282 397.179 334.393C397.222 334.428 397.261 334.468 397.297 334.51C397.444 334.657 397.576 334.804 397.701 334.951C397.72 334.971 397.737 334.993 397.752 335.017C397.928 335.222 398.09 335.428 398.244 335.633C398.318 335.736 398.399 335.839 398.465 335.942C398.553 336.066 398.641 336.199 398.714 336.323C398.781 336.426 398.839 336.536 398.898 336.639C399.054 336.903 399.187 337.181 399.295 337.468C399.377 337.663 399.444 337.864 399.493 338.07C399.549 338.265 399.591 338.464 399.618 338.665Z" fill="#2F2E41"/>
  <path opacity="0.2" d="M399.618 338.665C399.611 339.949 399.596 341.747 399.537 343.971C399.53 344.279 399.515 344.595 399.508 344.918C399.434 348.037 399.324 351.89 399.17 356.242C399.163 356.507 399.155 356.763 399.141 357.028C398.935 362.341 398.612 368.528 398.053 378.326C397.018 396.425 395.211 380.814 393.396 387.163C388.357 384.066 382.832 380.822 376.926 377.49C375.861 376.888 374.786 376.284 373.701 375.677C361.889 369.094 348.695 362.195 334.922 355.362C334.378 355.09 333.827 354.819 333.284 354.554C301.732 338.973 267.294 323.817 239.394 313.703C234.009 311.751 228.867 309.99 224.033 308.441C213.852 305.19 205.051 302.915 198.278 301.931C191.226 300.904 186.356 301.271 184.387 303.392C184.313 301.894 184.238 300.461 184.159 299.091C184.13 298.636 184.1 298.188 184.071 297.748C184.116 297.627 184.175 297.512 184.232 297.395C184.24 297.378 184.246 297.361 184.255 297.344C184.269 297.306 184.286 297.269 184.306 297.234C184.328 297.188 184.352 297.144 184.38 297.102C184.403 297.05 184.433 297.001 184.468 296.955C184.534 296.852 184.607 296.742 184.688 296.639C184.748 296.562 184.811 296.489 184.879 296.419C184.902 296.384 184.929 296.352 184.96 296.324C184.989 296.294 185.019 296.258 185.055 296.221C185.071 296.198 185.091 296.178 185.114 296.162C185.172 296.096 185.236 296.034 185.305 295.979C185.567 295.738 185.847 295.517 186.143 295.318C186.245 295.252 186.356 295.186 186.458 295.113C187.199 294.67 187.978 294.297 188.787 293.997C189.066 293.895 189.345 293.799 189.647 293.696C189.757 293.667 189.86 293.63 189.97 293.594C190.132 293.542 190.293 293.491 190.462 293.454C191.3 293.205 192.203 292.992 193.18 292.794C193.474 292.735 193.782 292.676 194.091 292.625C194.341 292.581 194.598 292.537 194.855 292.493C197.037 292.148 199.512 291.891 202.245 291.722C202.502 291.707 202.759 291.693 203.016 291.678C203.318 291.663 203.619 291.649 203.927 291.634C204.184 291.619 204.449 291.612 204.713 291.605C204.97 291.59 205.235 291.583 205.507 291.575C206.249 291.553 207.013 291.531 207.791 291.517C210.01 291.48 212.346 291.495 214.799 291.546C215.938 291.568 217.099 291.605 218.289 291.656C218.362 291.656 218.443 291.663 218.517 291.663C219.552 291.693 220.603 291.744 221.668 291.796C222.417 291.832 223.174 291.869 223.931 291.913C224.643 291.957 225.363 292.001 226.09 292.052C226.656 292.082 227.222 292.126 227.795 292.162C228.279 292.199 228.764 292.236 229.249 292.265C229.829 292.309 230.41 292.353 230.997 292.397C231.805 292.463 232.614 292.529 233.436 292.595C234.252 292.669 235.082 292.742 235.912 292.816C236.742 292.889 237.579 292.97 238.417 293.051C238.505 293.058 238.586 293.065 238.667 293.073C239.431 293.153 240.195 293.227 240.966 293.307C245.241 293.74 249.642 294.247 254.167 294.827C256.87 295.172 259.608 295.541 262.38 295.935C266.589 296.529 270.864 297.175 275.169 297.865C279.481 298.562 283.818 299.299 288.179 300.074C289.281 300.272 290.383 300.471 291.492 300.676C292.844 300.926 294.195 301.18 295.547 301.439C296.399 301.601 297.251 301.762 298.103 301.931C299.117 302.129 300.138 302.327 301.152 302.526C307.83 303.847 314.47 305.256 320.95 306.731C322.015 306.973 323.08 307.223 324.138 307.465C326.253 307.957 328.349 308.456 330.426 308.962C330.999 309.102 331.565 309.241 332.13 309.381C333.548 309.733 334.951 310.085 336.339 310.437V310.445C336.42 310.459 336.501 310.481 336.582 310.504C337.596 310.76 338.602 311.017 339.601 311.281C341.959 311.898 344.278 312.519 346.558 313.146C348.071 313.571 349.57 313.99 351.046 314.415C353.257 315.061 355.424 315.707 357.533 316.353C358.054 316.514 358.576 316.676 359.09 316.83C360.633 317.314 362.146 317.796 363.63 318.276C364.805 318.657 365.951 319.046 367.083 319.435C368.214 319.824 369.323 320.213 370.41 320.602C371.116 320.852 371.806 321.109 372.489 321.358C373.488 321.725 374.458 322.092 375.413 322.467C375.707 322.577 375.993 322.694 376.28 322.804C376.816 323.01 377.338 323.223 377.852 323.435C378.197 323.568 378.535 323.707 378.873 323.854C379.203 323.986 379.541 324.125 379.865 324.265C380.195 324.397 380.518 324.536 380.842 324.683C381.113 324.793 381.378 324.911 381.635 325.028C382.157 325.256 382.678 325.483 383.185 325.718C383.435 325.835 383.685 325.946 383.934 326.063L384.507 326.327C384.588 326.371 384.669 326.408 384.75 326.445C385.374 326.738 385.977 327.032 386.564 327.325C387.115 327.604 387.651 327.883 388.166 328.155C388.775 328.478 389.356 328.793 389.914 329.116C390.024 329.175 390.134 329.241 390.245 329.3C390.619 329.512 390.979 329.733 391.339 329.945C392.044 330.378 392.713 330.804 393.337 331.23C393.954 331.655 394.527 332.074 395.064 332.492C395.064 332.5 395.064 332.499 395.071 332.499C395.328 332.705 395.578 332.91 395.813 333.109C396.195 333.439 396.547 333.754 396.871 334.077C396.979 334.177 397.082 334.282 397.179 334.393C397.222 334.428 397.261 334.468 397.297 334.51C397.451 334.679 397.605 334.848 397.752 335.017C397.929 335.222 398.09 335.428 398.244 335.633C398.318 335.736 398.399 335.839 398.465 335.942C398.553 336.066 398.641 336.199 398.715 336.323C398.781 336.426 398.839 336.536 398.898 336.639C399.054 336.903 399.187 337.181 399.295 337.468C399.375 337.664 399.442 337.865 399.493 338.07C399.549 338.265 399.591 338.464 399.618 338.665Z" fill="black"/>
  </g>
  <defs>
  <clipPath id="clip0_5_151">
  <rect width="578" height="420" fill="white"/>
  </clipPath>
  </defs>
  </svg>
  